PathFileType	4	(X/Y/Z)	/Users/visionmauri/Downloads/Videos/OAW08-top_Sports2D/OAW08-top_Sports2D_px_person00.trc
DataRate	CameraRate	NumFrames	NumMarkers	Units	OrigDataRate	OrigDataStartFrame	OrigNumFrames
30.0	30.0	12	22	m	30.0	0	2144
Frame#	Time	Hip			RHip			RKnee			RAnkle			RBigToe			RSmallToe			RHeel			LHip			LKnee			LAnkle			LBigToe			LSmallToe			LHeel			Neck			Head			Nose			RShoulder			RElbow			RWrist			LShoulder			LElbow			LWrist			
		X1	Y1	Z1	X2	Y2	Z2	X3	Y3	Z3	X4	Y4	Z4	X5	Y5	Z5	X6	Y6	Z6	X7	Y7	Z7	X8	Y8	Z8	X9	Y9	Z9	X10	Y10	Z10	X11	Y11	Z11	X12	Y12	Z12	X13	Y13	Z13	X14	Y14	Z14	X15	Y15	Z15	X16	Y16	Z16	X17	Y17	Z17	X18	Y18	Z18	X19	Y19	Z19	X20	Y20	Z20	X21	Y21	Z21	X22	Y22	Z22
0	0.0	511.56050745623963	584.4454703909694	0.0	499.65778597643333	588.6113112980971	0.0	497.2771555561297	633.8421792596342	0.0	497.87234847611086	675.5019574883136	0.0	489.54042484292574	686.8095913216837	0.0	485.96955294387664	685.0241313142548	0.0	500.25290217800165	683.2387952412167	0.0	522.8682245386045	587.4211175762722	0.0	526.4390117236148	633.8420067786886	0.0	528.8196611416909	675.5019282341943	0.0	527.6293786179854	689.1902740798718	0.0	533.5807566349243	688.5950770844496	0.0	527.0341939393364	683.2387374743159	0.0	510.96534768986567	518.3848795017649	0.0	511.5605326231741	488.03290714616537	0.0	510.3702935640934	510.6482163912787	0.0	489.54037196287425	524.9314035827495	0.0	483.5889287269614	563.0204377208298	0.0	482.39865372557443	596.3482961954404	0.0	531.7952762118529	524.9314554989752	0.0	537.746697085176	561.8301934513624	0.0	539.5321182121969	594.5629050674494	0.0
1	0.033348887851920986	511.57513941776153	584.6475416438223	0.0	499.7596460161882	588.6186855589075	0.0	497.3789514609236	633.673740059914	0.0	497.7344515667094	675.1758735860191	0.0	489.5309655136966	686.8258869355203	0.0	485.9277484176413	685.0182092573684	0.0	500.1474268025946	683.2574619878109	0.0	522.9864517805319	587.4847977094116	0.0	526.6181215947117	633.6917777712563	0.0	528.7940687693015	675.1747693078717	0.0	527.5740830254849	689.2424508053826	0.0	533.4219251873149	688.6388814705093	0.0	527.2079577121732	682.9695408617441	0.0	510.98934354048214	518.4354076006139	0.0	511.81341772608033	487.1177291167607	0.0	510.56415249524537	510.01388001259136	0.0	489.5281978969284	524.8765547391256	0.0	483.6895477646363	562.7182982258245	0.0	482.54180533208256	596.1964831688862	0.0	531.8918667634799	525.0522453593052	0.0	537.8282904463957	561.7286062056386	0.0	539.6342035565291	594.5362600688608	0.0
2	0.06669777570384197	511.59746502786305	584.8659041238647	0.0	499.9133809907246	588.6155051394438	0.0	497.430505949662	633.3085829923635	0.0	497.62294722612194	674.7938084954662	0.0	489.5252339109963	686.8504061509135	0.0	485.8767302333039	685.01918522724	0.0	500.06072022554434	683.1494336293632	0.0	523.0903347406003	587.2397356616513	0.0	526.7400813580658	633.3926213569545	0.0	528.7959338911523	674.7913829829175	0.0	527.5236955117019	689.2940737369483	0.0	533.4244142390348	688.6829181179477	0.0	527.3600536618532	682.5636591510699	0.0	510.99141438320396	518.4461381037569	0.0	511.91554188280827	486.04039903079916	0.0	510.62372832374217	509.2307405579163	0.0	489.5238847183644	524.8676531858333	0.0	483.6808268891316	562.4570151999847	0.0	482.63153854908956	596.0235154462118	0.0	531.9084684901333	525.176969801066	0.0	537.9036978453213	561.6812882655939	0.0	539.7242898771054	594.4611787034432	0.0
3	0.10004666355576296	511.5874765455034	584.9712371251226	0.0	500.04856609793256	588.5814363422409	0.0	497.3507482657887	632.9236842551743	0.0	497.5867449471764	674.491798599511	0.0	489.50626296519954	686.8617468246842	0.0	485.79147237066616	685.0190260110056	0.0	500.02149210500585	682.8545486777472	0.0	523.1456681222746	586.6527985778507	0.0	526.7210668402065	633.0232945225353	0.0	528.8490189941825	674.4919239572458	0.0	527.5385334038793	689.2917653094923	0.0	533.576081594889	688.6808756824491	0.0	527.4206083844784	682.1669868506427	0.0	510.90461780315036	518.4511244481661	0.0	511.7210752001275	485.5705157768448	0.0	510.49272731738813	508.90693236469684	0.0	489.51716611157116	524.9473576494648	0.0	483.56382412067654	562.3927939153782	0.0	482.57056492600003	595.921746461151	0.0	531.726994186244	525.3019106058375	0.0	537.9347258032348	561.7617467620985	0.0	539.7625033824418	594.4833905383205	0.0
4	0.13339555140768394	511.4785026060126	584.8905416593711	0.0	500.0668781290527	588.4581939112843	0.0	497.2189468091	632.8748537137291	0.0	497.6099132363452	674.3741311346956	0.0	489.47808321265023	686.8347265473221	0.0	485.67089156924436	684.9986248354336	0.0	500.0149213135742	682.5243903873426	0.0	523.1625266887421	586.2118381647963	0.0	526.5967229419639	632.7760433064086	0.0	528.9365032796727	674.386504387777	0.0	527.6263028251713	689.2144490409701	0.0	533.6031932727097	688.6146282723421	0.0	527.3980916515785	681.9540529427987	0.0	510.72631645379215	518.4726313767801	0.0	511.361430037373	486.00732648179724	0.0	510.3467043667047	509.3469253704522	0.0	489.49132336438856	525.1185104703098	0.0	483.4605931638086	562.5313211490283	0.0	482.39282043430745	595.9321963647901	0.0	531.5282524371788	525.4015508479574	0.0	537.9091953199762	561.9386173832828	0.0	539.7621213634875	594.64739448664	0.0
5	0.16674443925960492	511.3238975340873	584.7042566793896	0.0	499.98937811874043	588.164182584192	0.0	497.20844757841513	633.0733449809732	0.0	497.6421917581281	674.3718263402076	0.0	489.5369127564227	686.7822081414108	0.0	485.6287890338865	684.957182879284	0.0	499.9907239745123	682.3679871548259	0.0	523.199836256518	586.2423225788125	0.0	526.4870517313731	632.6879949999189	0.0	529.0116629303684	674.3946269957175	0.0	527.6989856160898	689.1371122229306	0.0	533.3998049329759	688.5501036791798	0.0	527.3720736692992	681.8782065944392	0.0	510.63781952072566	518.3967971184975	0.0	511.147672225592	486.19230067938855	0.0	510.43162690633915	509.70939476992606	0.0	489.4480276131066	525.2634853903833	0.0	483.4377720861178	562.6895667076723	0.0	482.2515463598045	595.9813336918879	0.0	531.6585800145976	525.3913553045351	0.0	537.8570631851597	562.0843550454356	0.0	539.7657725473796	594.645444572278	0.0
6	0.20009332711152591	511.31095108294875	584.5584991681317	0.0	499.9453308577186	587.7619896559008	0.0	497.24262841348656	633.1066193857675	0.0	497.6762495503573	674.407622054526	0.0	489.7455036419336	686.7656468030818	0.0	485.75065904096317	684.9298941701732	0.0	499.93121011496567	682.3841872839782	0.0	523.2825734733624	586.3841381735655	0.0	526.4579199731448	632.6277934301895	0.0	529.0515713752284	674.3875439328917	0.0	527.7255952655914	689.1436860881514	0.0	533.2874167768688	688.5492052797498	0.0	527.3527205285786	681.8369005140539	0.0	510.75282558101	518.237614037999	0.0	511.18366247895585	485.511116431082	0.0	510.71674269970896	509.44561311893614	0.0	489.4118328611518	525.1761712423878	0.0	483.4460200512354	562.7461128276167	0.0	482.20071145990175	596.0358849005977	0.0	531.930299727617	525.2295919849611	0.0	537.8142450444317	562.1265451846784	0.0	539.7611098532769	594.313267549257	0.0
7	0.23344221496344691	511.4472045624148	584.5990210693753	0.0	500.0118202918074	587.4961253343719	0.0	497.1245552409238	632.9962957507064	0.0	497.68572436977473	674.5102822719516	0.0	489.9429061675921	686.8505534137151	0.0	485.90113397246347	684.9476822095612	0.0	499.8772876564313	682.4944444908658	0.0	523.3481905842766	586.3468947152231	0.0	526.5236263271731	632.5564046646055	0.0	529.058534687812	674.355965824316	0.0	527.7583134232631	689.2615253155186	0.0	533.4853895473996	688.6022112957802	0.0	527.3148092251832	681.8333002247406	0.0	510.87505307346805	518.3069711240631	0.0	511.3328196660307	485.1943068214261	0.0	510.9426995588783	509.32741341873555	0.0	489.417513150373	524.8459750027973	0.0	483.44744113759003	562.7140509352166	0.0	482.19858372299717	596.0985966663898	0.0	531.8467606893881	525.0425061064553	0.0	537.8058789349744	562.1049180450458	0.0	539.7270397516751	594.0158220011955	0.0
8	0.2667911028153679	511.5103958305012	584.8087147739643	0.0	500.0897070145225	587.5511279503434	0.0	496.9681427967345	633.104423514243	0.0	497.6265762609877	674.6888571290687	0.0	489.933954222833	687.0086832964344	0.0	485.9221452582593	684.9946207612403	0.0	499.8674048277396	682.6821442015374	0.0	523.332139756203	586.3168829715462	0.0	526.6603503212807	632.6290190560961	0.0	529.0325486276117	674.3994276956373	0.0	527.7909163481478	689.4441772419214	0.0	533.7563620460842	688.6581189948336	0.0	527.2986978545017	681.9039694061677	0.0	510.839856905137	518.6908740195404	0.0	511.4572773552921	486.021077120348	0.0	510.99465208092147	509.8851638627802	0.0	489.45049374983176	524.5777534946138	0.0	483.4803809317223	562.6648633019311	0.0	482.24789958885174	596.1060702052985	0.0	531.5221980306881	524.9843652148079	0.0	537.8380882399836	562.1025997307436	0.0	539.7044867645952	594.113520370449	0.0
9	0.30013999066728886	511.48284467223857	584.9569368862182	0.0	500.0739907637807	587.8204261993764	0.0	497.0422133735998	633.4166881141665	0.0	497.5363408865042	674.8328034463542	0.0	489.75542790856343	687.0914997613562	0.0	485.853904400745	685.0275549388022	0.0	499.8936946995197	682.8607707035596	0.0	523.2762659413879	586.4101236622495	0.0	526.7905330950028	632.8877233625713	0.0	528.9930892256481	674.556249979337	0.0	527.7723560017906	689.5418550674245	0.0	533.8321256906286	688.6361159626631	0.0	527.3525644799706	682.030199420792	0.0	510.7993962706482	518.9524629421046	0.0	511.5119162412841	486.7899797677128	0.0	510.9946970054491	510.28969233507945	0.0	489.4508681907784	524.6353072086515	0.0	483.57291761442156	562.6294429543786	0.0	482.34311635771644	596.0084571099666	0.0	531.4744608840887	525.0469200887028	0.0	537.8937883961477	562.1246897737826	0.0	539.7765706790577	594.4011772547653	0.0
10	0.33348887851920983	511.5244357642076	584.8428732455986	0.0	500.0534683970673	587.9116387239376	0.0	497.29053243239514	633.5940582497401	0.0	497.4789447994598	674.8477129664647	0.0	489.5696406758684	686.9791386623285	0.0	485.8080949802809	684.9901892911176	0.0	499.9318013291239	682.9051060297112	0.0	523.2561258808505	586.4242978058697	0.0	526.7903852428187	633.0354711130541	0.0	528.9828354643616	674.7146402745972	0.0	527.7146532182383	689.4392556184497	0.0	533.7699129687497	688.4893029062786	0.0	527.4639623259707	682.1082202471858	0.0	510.84124981876994	518.736224002784	0.0	511.456129512644	486.5071771244112	0.0	511.0503221804549	509.8543704634364	0.0	489.41885959973337	524.9059718939699	0.0	483.6493739230802	562.5901495186075	0.0	482.39678476486495	595.8802101971079	0.0	531.7153690936669	525.1237937327729	0.0	537.9202294940663	562.1318648297449	0.0	539.916028963547	594.52139114087	0.0
11	0.36683776637113086	511.5380185228823	584.506406734845	0.0	500.08309025647753	587.654527650212	0.0	497.41310764073194	633.5613786192706	0.0	497.4562960484195	674.7548004760457	0.0	489.50055763649306	686.7326350814767	0.0	485.80282988925427	684.8530826061634	0.0	499.95567536883766	682.79400813011	0.0	523.2729328332468	586.248598254344	0.0	526.6133653699567	632.8308375560056	0.0	528.9928514457408	674.7425920201956	0.0	527.7069497338945	689.1932098109697	0.0	533.7271768866221	688.3013921747665	0.0	527.5748728618294	682.023576509329	0.0	510.7558810694493	518.269605987872	0.0	511.2783487395733	485.94530031484254	0.0	511.10012302747634	509.2059856473228	0.0	489.3947406688365	525.084509155481	0.0	483.62740209604397	562.5699894608737	0.0	482.4003832225295	595.8623533901166	0.0	531.8484526610159	525.1434425262639	0.0	537.8852560627357	562.180787355225	0.0	539.9101655548209	594.6220065673626	0.0
